# AST/ASF file generated using VICON BodyLanguage
# -----------------------------------------------
:version 1.10
:name VICON
:units
  mass 1.0
  length 0.45
  angle deg
:documentation
   .ast/.asf automatically generated from VICON data using
   VICON BodyBuilder and BodyLanguage model FoxedUp or BRILLIANT.MOD
:root
   order TX TY TZ RX RY RZ
   axis XYZ
   position 0 0 0  
   orientation 0 0 0 
:bonedata
  begin
     id 1 
     name lhipjoint
     direction 0.611823 -0.767273 0.19226 
     length 2.47422 
     axis 0 0 0  XYZ
  end
  begin
     id 2 
     name lfemur
     direction 0.34202 -0.939693 0  
     length 7.40835  
     axis 0 0 20  XYZ
    dof rx ry rz
    limits (-160.0 20.0)
           (-70.0 70.0)
           (-60.0 70.0)
  end
  begin
     id 3 
     name ltibia
     direction 0.34202 -0.939693 0   
     length 8.03679   
     axis 0 0 20   XYZ
    dof rx
    limits (-10.0 170.0)
  end
  begin
     id 4 
     name lfoot
     direction 0.0883598 -0.242766 0.966052   
     length 2.06694   
     axis -90 7.62852e-016 20   XYZ
    dof rx rz
    limits (-45.0 90.0)
           (-70.0 20.0)
  end
  begin
     id 5 
     name ltoes
     direction 1.53617e-011 -4.21699e-011 1   
     length 1.03711   
     axis -90 7.62852e-016 20   XYZ
    dof rx
    limits (-90.0 20.0)
  end
  begin
     id 6 
     name rhipjoint
     direction -0.590066 -0.783143 0.196236   
     length 2.42408  
     axis 0 0 0  XYZ 
  end
  begin
     id 7 
     name rfemur
     direction -0.34202 -0.939693 0   
     length 7.88987   
     axis 0 0 -20   XYZ
    dof rx ry rz
    limits (-160.0 20.0)
           (-70.0 70.0)
           (-70.0 60.0)
  end
  begin
     id 8 
     name rtibia
     direction -0.34202 -0.939693 0   
     length 7.87584   
     axis 0 0 -20   XYZ
    dof rx
    limits (-10.0 170.0)
 end
 begin
     id 9 
     name rfoot
     direction -0.130476 -0.358481 0.924374   
     length 2.21745  
     axis -90 -7.62852e-016 -20   XYZ
    dof rx rz
    limits (-45.0 90.0)
           (-20.0 70.0)
  end
  begin
     id 10 
     name rtoes
     direction 8.20695e-005 8.89091e-005 1   
     length 1.09536   
     axis -90 -7.62852e-016 -20   XYZ
    dof rx
    limits (-90.0 20.0)
  end
  begin
     id 11 
     name lowerback
     direction 0.00981224 0.999875 -0.0124197   
     length 1.94808   
     axis 0 0 0   XYZ
    dof rx ry rz
    limits (-20.0 45.0)
           (-30.0 30.0)
           (-30.0 30.0)
  end
  begin
     id 12 
     name upperback
     direction 0.038911 0.999194 0.00981686   
     length 1.94415   
     axis 0 0 0   XYZ
    dof rx ry rz
    limits (-20.0 45.0)
           (-30.0 30.0)
           (-30.0 30.0)
  end
  begin
     id 13 
     name thorax
     direction 0.0330692 0.999334 0.0154389   
     length 1.94117   
     axis 0 0 0   XYZ
    dof rx ry rz
    limits (-20.0 45.0)
           (-30.0 30.0)
           (-30.0 30.0)
  end
  begin
     id 14 
     name lowerneck
     direction -0.0374305 0.99415 0.10132   
     length 1.87291   
     axis 0 0 0   XYZ
    dof rx ry rz
    limits (-20.0 45.0)
           (-30.0 30.0)
           (-30.0 30.0)
  end
  begin
     id 15 
     name upperneck
     direction 0.0120692 0.985979 -0.166431   
     length 1.89248   
     axis 0 0 0   XYZ
    dof rx ry rz
    limits (-20.0 45.0)
           (-30.0 30.0)
           (-30.0 30.0)
  end
  begin
     id 16
     name head
     direction 0.00629908 0.997708 -0.06737  
     length 1.90559  
     axis 0 0 0   XYZ
    dof rx ry rz
    limits (-20.0 45.0)
           (-30.0 30.0)
           (-30.0 30.0)
  end
  begin
     id 17 
     name lclavicle
     direction 0.961536 0.27308 -0.0295863  
     length 3.52757  
     axis 0 0 0   XYZ
    dof ry rz
    limits (-20.0 10.0)
           (0.0 20.0)
  end
  begin
     id 18 
     name lhumerus
     direction 1 -4.48969e-011 2.61153e-029   
     length 5.14845   
     axis 180 -30 -90   XYZ
    dof rx ry rz
    limits (-60.0 90.0)
           (-90.0 90.0)
           (-90.0 90.0)
  end
  begin
     id 19
     name lradius
     direction 1 -4.4896e-011 -3.37549e-027   
     length 3.43674   
     axis 180 -30 -90   XYZ
    dof rx
    limits (-10.0 170.0)
  end
  begin
     id 20
     name lwrist
     direction 1 -4.48969e-011 2.56952e-028   
     length 1.71837   
     axis -5.12785e-016 90 90   XYZ
    dof ry
    limits (-180.0 0.0)
 end
  begin
     id 21 
     name lhand
     direction 1 -4.49094e-011 5.13905e-028   
     length 0.588709   
     axis -3.27915e-016 90 90   XYZ
    dof rx rz
    limits (-90.0 90.0)
           (-45.0 45.0)
  end
  begin
     id 22 
     name lfingers
     direction 1 -4.48821e-011 1.02781e-027   
     length 0.474633   
     axis -6.5583e-016 90 90   XYZ
    dof rx
    limits (0.0 90.0)
  end
  begin
     id 23
     name lthumb
     direction 0.707107 -6.34922e-011 0.707107   
     length 0.68148   
     axis -90 45 2.85299e-015   XYZ
    dof rx rz
    limits (-45.0 45.0)
           (-45.0 45.0)
  end
  begin
     id 24 
     name rclavicle
     direction -0.940964 0.333844 -0.0559866   
     length 3.55948  
     axis 0 0 0   XYZ 
    dof ry rz
    limits (-10.0 20.0)
           (-20.0 0.0)
  end
  begin
     id 25 
     name rhumerus
     direction -1 -4.48973e-011 3.15259e-027  
     length 5.42185   
     axis 180 30 90   XYZ
    dof rx ry rz
    limits (-90.0 60.0)
           (-90.0 90.0)
           (-90.0 90.0)
  end
  begin
     id 26 
     name rradius
     direction -1 -4.48954e-011 -2.56271e-027   
     length 3.51317   
     axis 180 30 90   XYZ
    dof rx
    limits (-10.0 170.0)
  end
  begin
     id 27 
     name rwrist
     direction -1 -4.48943e-011 2.56952e-028   
     length 1.75658   
     axis -5.12785e-016 -90 -90   XYZ
    dof ry
    limits (-180.0 0.0)
  end
  begin
     id 28
     name rhand
     direction -1 -4.4912e-011 5.13905e-028   
     length 0.663187   
     axis -3.27915e-016 -90 -90   XYZ
    dof rx rz
    limits (-90.0 90.0)
           (-45.0 45.0)
  end
  begin
     id 29
     name rfingers
     direction -1 -4.48914e-011 1.02781e-027   
     length 0.534679   
     axis -6.5583e-016 -90 -90   XYZ
    dof rx
    limits (0.0 90.0)
  end
  begin
     id 30
     name rthumb
     direction -0.707107 -6.35033e-011 0.707107   
     length 0.767695   
     axis -90 -45 -2.85299e-015   XYZ
    dof rx rz
    limits (-45.0 45.0)
           (-45.0 45.0)
  end
:hierarchy
  begin
    root lhipjoint rhipjoint lowerback
    lhipjoint lfemur
    lfemur ltibia
    ltibia lfoot
    lfoot ltoes
    rhipjoint rfemur
    rfemur rtibia
    rtibia rfoot
    rfoot rtoes
    lowerback upperback
    upperback thorax
    thorax lowerneck lclavicle rclavicle
    lowerneck upperneck
    upperneck head
    lclavicle lhumerus
    lhumerus lradius
    lradius lwrist
    lwrist lhand lthumb
    lhand lfingers
    rclavicle rhumerus
    rhumerus rradius
    rradius rwrist
    rwrist rhand rthumb
    rhand rfingers
  end

#!OML:ASF F:\VICON\USERDATA\INSTALL\Justin_a\Justin_a.ASF
:FULLY-SPECIFIED
:DEGREES
1249
root -16.2507 18.1788 3.24979 6.87409 18.9352 -0.835656
lowerback 1.26474 7.19024 -2.51082
upperback 1.60558 9.58171 -1.75849
thorax 0.843189 4.7752 -0.476654
lowerneck -2.38348 18.5648 0.190449
upperneck 32.7741 30.759 -7.77205
head 12.9117 13.2683 0.820671
rclavicle -8.61235e-014 3.18055e-015
rhumerus -39.877 -11.3607 -80.1964
rradius 28.6278
rwrist -5.00113
rhand -24.5213 13.0047
rfingers 7.12502
rthumb 1.97386 -16.9659
lclavicle -8.61235e-014 3.18055e-015
lhumerus -38.7599 19.7912 70.5154
lradius 35.1039
lwrist 8.87346
lhand -17.564 23.8436
lfingers 7.12502
lthumb 8.6911 53.6447
rfemur -16.3968 -17.6745 28.8961
rtibia 61.7249
rfoot -9.1057 -5.6553
rtoes -3.82768
lfemur -26.0916 -6.86802 -22.792
ltibia 30.5956
lfoot -4.9071 -19.938
ltoes -0.240872
1250
root -16.2498 18.17 3.1368 6.80776 18.4918 -1.01868
lowerback 1.24224 7.36951 -2.35852
upperback 1.60183 9.8223 -1.75459
thorax 0.874445 4.89682 -0.552222
lowerneck -2.36531 18.6018 0.161603
upperneck 32.6864 30.7981 -7.78858
head 12.8712 13.2897 0.8164
rclavicle 5.4467e-014 -1.39149e-014
rhumerus -39.5616 -11.0444 -80.2416
rradius 28.7819
rwrist -5.16908
rhand -24.6565 13.0071
rfingers 7.12502
rthumb 1.84327 -16.9647
lclavicle 5.4467e-014 -1.39149e-014
lhumerus -38.7856 19.8894 70.6027
lradius 35.1245
lwrist 8.83592
lhand -17.5359 23.84
lfingers 7.12502
lthumb 8.71819 53.64
rfemur -15.3585 -16.667 29.2693
rtibia 60.302
rfoot -8.78938 -5.21838
rtoes -3.14761
lfemur -26.4894 -6.84895 -22.5774
ltibia 30.5402
lfoot -4.27759 -20.0434
ltoes 0.925164
1251
root -16.2448 18.156 3.01691 6.73434 18.1641 -1.05982
lowerback 1.43633 7.47645 -2.23683
upperback 1.50795 9.95582 -1.81221
thorax 0.700271 4.96714 -0.710641
lowerneck -2.26437 18.5984 0.242968
upperneck 32.7151 30.8152 -7.84246
head 12.8919 13.303 0.784602
rclavicle 1.31297e-013 -3.18055e-015
rhumerus -39.4651 -10.6382 -80.316
rradius 29.1095
rwrist -5.5063
rhand -24.5396 12.7056
rfingers 7.12502
rthumb 1.95621 -17.2652
lclavicle 1.31297e-013 -3.18055e-015
lhumerus -39.0253 19.9462 70.5003
lradius 35.0503
lwrist 8.80372
lhand -17.5599 23.8156
lfingers 7.12502
lthumb 8.6951 53.6165
rfemur -14.2888 -15.8134 29.4487
rtibia 58.7868
rfoot -8.45645 -4.80022
rtoes -2.81099
lfemur -26.8297 -6.8095 -22.5748
ltibia 30.5118
lfoot -4.05744 -20.2601
ltoes 0.597683
1252
root -16.2401 18.1368 2.89248 6.68848 17.8467 -1.15319
lowerback 1.34571 7.52563 -2.09298
upperback 1.58702 10.0283 -1.78625
thorax 0.851341 5.0034 -0.740265
lowerneck -2.33227 18.629 0.197741
upperneck 32.7284 30.9395 -8.0109
head 12.9508 13.3267 0.765252
rclavicle -1.32888e-013 1.31198e-014
rhumerus -39.039 -10.4631 -80.2045
rradius 29.2905
rwrist -5.31613
rhand -24.7716 12.6392
rfingers 7.12502
rthumb 1.73217 -17.3335
lclavicle -1.32888e-013 1.31198e-014
lhumerus -39.14 20.1042 70.5909
lradius 35.0634
lwrist 8.96428
lhand -17.5254 23.5538
lfingers 7.12502
lthumb 8.72831 53.3533
rfemur -13.3099 -14.8475 29.7164
rtibia 57.2229
rfoot -7.97538 -4.78334
rtoes -2.61303
lfemur -27.216 -6.86543 -22.4854
ltibia 30.46
lfoot -3.99979 -20.3545
ltoes -0.689313
1253
root -16.2356 18.1174 2.76685 6.70951 17.3517 -1.09873
lowerback 1.25194 7.64598 -2.06625
upperback 1.64188 10.1947 -1.84263
thorax 0.974723 5.08629 -0.793082
lowerneck -2.43802 18.6644 0.167615
upperneck 32.7781 31.0277 -8.0436
head 13.0019 13.3459 0.787199
rclavicle -7.55382e-014 2.74323e-014
rhumerus -38.6318 -10.2715 -80.1208
rradius 29.5231
rwrist -5.39872
rhand -24.7754 12.9542
rfingers 7.12502
rthumb 1.72845 -17.0186
lclavicle -7.55382e-014 2.74323e-014
lhumerus -39.2332 20.2348 70.6502
lradius 35.0104
lwrist 8.82784
lhand -17.3829 23.2417
lfingers 7.12502
lthumb 8.86583 53.0355
rfemur -12.413 -13.6052 29.8344
rtibia 55.6286
rfoot -7.50624 -5.01939
rtoes -2.07293
lfemur -27.6104 -6.82152 -22.5411
ltibia 30.3921
lfoot -4.08102 -20.5471
ltoes -2.63532
1254
root -16.2338 18.099 2.63875 6.86947 16.7984 -0.905188
lowerback 1.16661 7.76294 -2.23374
upperback 1.60126 10.3522 -1.9357
thorax 0.968556 5.16385 -0.791139
lowerneck -2.421 18.7042 0.167647
upperneck 32.7837 31.0979 -8.07504
head 13.0138 13.3727 0.786026
rclavicle 5.15846e-014 7.95139e-016
rhumerus -38.226 -9.88827 -80.1039
rradius 29.7499
rwrist -5.74205
rhand -24.7179 13.0967
rfingers 7.12502
rthumb 1.78403 -16.8756
lclavicle 5.15846e-014 7.95139e-016
lhumerus -39.4582 20.6008 70.6021
lradius 34.8904
lwrist 8.30977
lhand -17.4466 23.4086
lfingers 7.12502
lthumb 8.80443 53.205
rfemur -11.7056 -12.1656 29.8242
rtibia 54.0113
rfoot -7.20632 -5.17076
rtoes -0.327488
lfemur -28.1471 -6.84681 -22.6922
ltibia 30.3314
lfoot -3.58445 -20.6381
ltoes -2.91154
1255
root -16.2293 18.0803 2.5057 6.89068 16.2365 -0.822802
lowerback 1.26926 7.88353 -2.23969
upperback 1.58208 10.5084 -1.97395
thorax 0.898255 5.24281 -0.844779
lowerneck -2.50973 18.7606 0.114301
upperneck 32.8814 31.2369 -8.10815
head 13.0838 13.4098 0.818238
rclavicle 7.52897e-014 -2.46493e-014
rhumerus -37.8537 -9.4593 -80.0245
rradius 30.1016
rwrist -5.93152
rhand -24.9429 13.2503
rfingers 7.12502
rthumb 1.56672 -16.7237
lclavicle 7.52897e-014 -2.46493e-014
lhumerus -39.6025 20.896 70.6561
lradius 34.7226
lwrist 8.22021
lhand -17.2333 23.4978
lfingers 7.12502
lthumb 9.01021 53.2854
rfemur -10.8739 -10.6878 29.8856
rtibia 52.3302
rfoot -7.43755 -5.49506
rtoes -1.18111
lfemur -28.6015 -6.85736 -22.7512
ltibia 30.2883
lfoot -3.01066 -20.5858
ltoes -2.4905
1256
root -16.2208 18.0586 2.3669 6.94498 15.7359 -0.684129
lowerback 1.40125 8.01934 -2.14391
upperback 1.55211 10.6856 -2.10377
thorax 0.836746 5.33431 -1.04766
lowerneck -2.61369 18.7993 0.059192
upperneck 32.9376 31.2945 -8.03728
head 13.1072 13.4254 0.86923
rclavicle -6.05299e-014 1.90833e-014
rhumerus -37.4299 -9.32661 -79.916
rradius 30.3907
rwrist -5.84136
rhand -25.0486 12.8746
rfingers 7.12502
rthumb 1.46461 -17.1001
lclavicle -6.05299e-014 1.90833e-014
lhumerus -39.6819 20.9579 70.7346
lradius 34.5752
lwrist 8.15455
lhand -17.0041 23.2392
lfingers 7.12502
lthumb 9.23137 53.0171
rfemur -10.0742 -9.24576 29.8626
rtibia 50.6088
rfoot -8.47567 -6.04421
rtoes -3.72235
lfemur -29.1439 -6.95796 -22.8693
ltibia 30.2708
lfoot -2.50125 -20.6268
ltoes -1.92261
1257
root -16.2101 18.0385 2.22867 7.02518 15.2791 -0.624481
lowerback 1.49012 8.11283 -1.92709
upperback 1.43891 10.8069 -2.22876
thorax 0.735324 5.39945 -1.30868
lowerneck -2.43343 18.842 0.13885
upperneck 32.8827 31.3339 -8.06861
head 13.0723 13.4634 0.832348
rclavicle -1.48592e-013 2.10712e-014
rhumerus -37.0941 -9.2375 -79.7896
rradius 30.6713
rwrist -5.85579
rhand -25.054 12.5937
rfingers 7.12502
rthumb 1.45938 -17.3811
lclavicle -1.48592e-013 2.10712e-014
lhumerus -40.044 20.9949 70.6929
lradius 34.5726
lwrist 8.19406
lhand -17.2252 23.29
lfingers 7.12502
lthumb 9.01806 53.0772
rfemur -9.29456 -7.88561 29.8752
rtibia 48.8494
rfoot -9.62579 -6.45794
rtoes -6.26838
lfemur -29.715 -7.03151 -22.9079
ltibia 30.2298
lfoot -2.07341 -20.7
ltoes -1.5084
1258
root -16.1912 18.0221 2.09589 7.13964 14.8549 -0.623042
lowerback 1.67983 8.17416 -1.60252
upperback 1.18722 10.8796 -2.34035
thorax 0.453333 5.44124 -1.64061
lowerneck -2.30247 18.9051 0.0736183
upperneck 33.0474 31.3982 -7.86222
head 13.0683 13.5059 0.901491
rclavicle -5.82936e-014 2.50469e-014
rhumerus -36.9953 -8.93646 -79.6704
rradius 31.0841
rwrist -6.18209
rhand -24.7063 12.5279
rfingers 7.12502
rthumb 1.79524 -17.4443
lclavicle -5.82936e-014 2.50469e-014
lhumerus -40.6053 20.6602 70.7633
lradius 34.6496
lwrist 8.60956
lhand -17.8056 23.7508
lfingers 7.12502
lthumb 8.45796 53.5614
rfemur -8.56884 -6.60188 29.8939
rtibia 47.138
rfoot -10.5628 -6.7565
rtoes -8.33788
lfemur -30.2303 -7.15919 -22.8711
ltibia 30.1124
lfoot -1.37469 -20.743
ltoes -0.0518826
